<svg width="76" height="82" viewBox="0 0 76 82" fill="none" xmlns="http://www.w3.org/2000/svg">
<path d="M30.8612 41.1191C33.5613 41.1191 36.6752 43.5944 37.9834 46.1319C39.239 43.5944 42.3194 41.1191 45.0195 41.1191C52.1225 41.1191 55.8845 50.8601 49.4105 57.2242L38.2082 68.2351L26.774 57.2242C20.0943 51.2093 23.7582 41.1191 30.8612 41.1191Z" stroke="white" stroke-width="2" stroke-miterlimit="22.9256" stroke-linecap="round" stroke-linejoin="round"/>
<path d="M51.8856 27.6806V15.5121C51.8856 7.88293 45.6388 1.62891 38 1.62891C30.3636 1.62891 24.1144 7.87576 24.1144 15.5121V27.6782M7.40909 16.3803H68.5933C70.3535 16.3803 71.6976 17.8415 71.7957 19.5826L74.9956 77.0694C75.0937 78.8057 73.5343 80.2718 71.7957 80.2718H4.20675C2.46567 80.2718 0.906334 78.8273 1.00439 77.0694L4.20675 19.5826C4.3048 17.8224 5.64887 16.3803 7.40909 16.3803ZM51.8832 23.6986C53.4282 23.6986 54.6838 24.9518 54.6838 26.4967C54.6838 28.0417 53.4306 29.2949 51.8832 29.2949C50.3382 29.2949 49.085 28.0417 49.085 26.4967C49.085 24.9518 50.3382 23.6986 51.8832 23.6986ZM24.1168 23.6986C25.6618 23.6986 26.9149 24.9518 26.9149 26.4967C26.9149 28.0417 25.6618 29.2949 24.1168 29.2949C22.5694 29.2949 21.3162 28.0417 21.3162 26.4967C21.3186 24.9518 22.5694 23.6986 24.1168 23.6986Z" stroke="white" stroke-width="2" stroke-miterlimit="22.9256"/>
</svg>
