<svg width="47" height="51" viewBox="0 0 47 51" fill="none" xmlns="http://www.w3.org/2000/svg">
<path d="M33.901 15.6367L38.495 10.5607C38.495 10.5607 41.533 7.37469 37.569 3.96569C35.112 1.85369 33.056 1.71369 31.662 2.29669C30.529 2.77969 29.583 4.39269 29.039 5.24769C25.702 10.4907 15.895 25.7887 15.895 25.7887L1 49.5367L30.937 18.7857" stroke="#C0A78F" stroke-width="2" stroke-miterlimit="3.8637"/>
<path fill-rule="evenodd" clip-rule="evenodd" d="M34.9376 6.6699C34.9376 6.6699 36.2346 7.7079 35.1236 9.3009C34.0126 10.8939 30.7515 14.7099 30.7515 14.7099C30.7515 14.7099 29.8256 15.4879 28.5656 14.5619C27.3066 13.6359 27.5285 12.4869 28.1955 11.5979C28.8625 10.7089 31.6776 6.9669 31.6776 6.9669C32.6866 5.6939 33.7736 5.5949 34.9376 6.6699Z" stroke="#C0A78F" stroke-width="2" stroke-miterlimit="3.8637"/>
<path d="M29.4546 9.96875C29.4546 9.96875 31.6406 11.7108 33.0486 13.7478C34.4566 15.7858 34.8176 22.8717 30.2146 31.5597C25.6116 40.2477 32.5486 45.9537 36.6986 45.6937C40.8476 45.4347 44.3496 43.5538 45.0626 39.3398" stroke="#C0A78F" stroke-width="2" stroke-miterlimit="3.8637"/>
<path d="M24.5075 7.56919C24.1195 7.37419 6.94954 3.13219 4.27854 13.9232C2.65754 20.4712 10.3675 21.9582 15.2305 19.0892" stroke="#C0A78F" stroke-width="2" stroke-miterlimit="3.8637"/>
</svg>
