<svg width="34" height="54" viewBox="0 0 34 54" fill="none" xmlns="http://www.w3.org/2000/svg">
<path d="M16.8 5.646C19.4742 5.646 21.642 4.60596 21.642 3.323C21.642 2.04004 19.4742 1 16.8 1C14.1259 1 11.958 2.04004 11.958 3.323C11.958 4.60596 14.1259 5.646 16.8 5.646Z" stroke="#C0A78F" stroke-width="2" stroke-miterlimit="3.8637"/>
<path d="M21.7621 3.42969V7.59669C21.7621 7.59669 21.4621 8.76069 22.6601 9.57369C23.8581 10.3867 31.3521 14.4927 31.3521 14.4927C31.3521 14.4927 33.9871 15.7767 31.8311 20.1567C29.6751 24.5367 25.9871 30.8147 25.9871 30.8147C25.9871 30.8147 24.7291 33.5697 26.5261 35.7597C28.3231 37.9497 31.4711 43.6477 31.4711 48.5327C31.4711 48.5327 28.3231 52.8797 16.1821 52.8797H17.4971C5.35705 52.8797 2.20805 48.5327 2.20805 48.5327C2.20805 43.6477 5.35606 37.9497 7.15306 35.7597C8.95006 33.5697 7.69206 30.8147 7.69206 30.8147C7.69206 30.8147 4.00407 24.5367 1.84807 20.1567C-0.307933 15.7767 2.32706 14.4927 2.32706 14.4927C2.32706 14.4927 9.82206 10.3857 11.0191 9.57369C12.2171 8.76069 11.9171 7.59669 11.9171 7.59669V3.42969" stroke="#C0A78F" stroke-width="2" stroke-miterlimit="3.8637"/>
</svg>
