<svg width="52" height="52" viewBox="0 0 52 52" fill="none" xmlns="http://www.w3.org/2000/svg">
<path fill-rule="evenodd" clip-rule="evenodd" d="M26 12.3094L35.8571 3V16.7343L26.0464 26L26 12.3094Z" stroke="#C0A78F" stroke-width="2" stroke-miterlimit="3.8637"/>
<path d="M35.3672 16.1426H49L39.5937 25.9997H26" stroke="#C0A78F" stroke-width="2" stroke-miterlimit="3.8637"/>
<path fill-rule="evenodd" clip-rule="evenodd" d="M25.9997 12.3094L16.1426 3V16.7343L25.9523 26L25.9997 12.3094Z" stroke="#C0A78F" stroke-width="2" stroke-miterlimit="3.8637"/>
<path d="M16.6327 16.1426H3L12.4063 25.9997H26" stroke="#C0A78F" stroke-width="2" stroke-miterlimit="3.8637"/>
<path fill-rule="evenodd" clip-rule="evenodd" d="M26 39.6906L35.8571 49V35.2647L26.0464 26L26 39.6906Z" stroke="#C0A78F" stroke-width="2" stroke-miterlimit="3.8637"/>
<path d="M35.3672 35.8571H49L39.5937 26H26" stroke="#C0A78F" stroke-width="2" stroke-miterlimit="3.8637"/>
<path fill-rule="evenodd" clip-rule="evenodd" d="M25.9997 39.6906L16.1426 49V35.2647L25.9523 26L25.9997 39.6906Z" stroke="#C0A78F" stroke-width="2" stroke-miterlimit="3.8637"/>
<path d="M16.6327 35.8571H3L12.4063 26H26" stroke="#C0A78F" stroke-width="2" stroke-miterlimit="3.8637"/>
</svg>
