<svg width="62" height="49" viewBox="0 0 62 49" fill="none" xmlns="http://www.w3.org/2000/svg">
<path d="M12.8339 17.3604H40.1629L43.4649 22.9754H52.8879C52.8879 22.9754 55.2599 23.1194 55.2019 20.3974C55.1389 17.4334 55.2019 8.44341 55.2019 8.44341C55.2019 8.44341 55.4439 5.86541 52.6229 5.86541C49.8029 5.86541 8.15892 5.86541 8.15892 5.86541C6.42992 5.85141 6.13391 6.67741 6.08691 7.93741V47.1474H58.8649C60.0009 47.1044 60.5789 46.5254 60.5999 45.4124V42.5444C60.5269 41.3404 59.9249 40.7374 58.7919 40.7364H27.9139" stroke="#C0A78F" stroke-width="2" stroke-miterlimit="3.8637"/>
<path d="M11.125 5.914V1" stroke="#C0A78F" stroke-width="2" stroke-miterlimit="3.8637"/>
<path d="M7.80957 1.0625C7.90357 1.0625 14.6576 1.0625 14.6576 1.0625" stroke="#C0A78F" stroke-width="2" stroke-miterlimit="3.8637"/>
<path d="M40.1318 12.8984V17.3524" stroke="#C0A78F" stroke-width="2" stroke-miterlimit="3.8637"/>
<path d="M35.0371 12.8984V17.3524" stroke="#C0A78F" stroke-width="2" stroke-miterlimit="3.8637"/>
<path d="M29.9434 10.9766V17.3526" stroke="#C0A78F" stroke-width="2" stroke-miterlimit="3.8637"/>
<path d="M22.499 17.3516V42.2296" stroke="#C0A78F" stroke-width="2" stroke-miterlimit="3.8637"/>
<path d="M10.6172 23.5H13.1042V25.987H10.6172V23.5Z" fill="#C0A78F"/>
<path d="M10.6172 28.9141H13.1042V31.4001H10.6172V28.9141Z" fill="#C0A78F"/>
<path d="M11.5889 35.9847C11.5889 35.7017 11.8179 35.4727 12.1019 35.4727H16.5379C16.8209 35.4727 17.0509 35.7017 17.0509 35.9847V40.4207C17.0509 40.7037 16.8219 40.9337 16.5379 40.9337H12.1019C11.8189 40.9337 11.5889 40.7047 11.5889 40.4207V35.9847Z" stroke="#C0A78F" stroke-width="2" stroke-miterlimit="3.8637"/>
<path d="M46.1875 22.9785H52.1515V28.9425H46.1875V22.9785Z" stroke="#C0A78F" stroke-width="2" stroke-miterlimit="3.8637"/>
<path d="M49.2227 28.9531V35.8571" stroke="#C0A78F" stroke-width="2" stroke-miterlimit="3.8637"/>
<path d="M6.091 26.3299H1.854C1.382 26.3299 1 25.9479 1 25.4759V14.8579C1 14.3859 1.382 14.0039 1.854 14.0039H6.12799" stroke="#C0A78F" stroke-width="2" stroke-miterlimit="3.8637"/>
<path d="M6.76875 47.1484H1.09375" stroke="#C0A78F" stroke-width="2" stroke-miterlimit="3.8637"/>
</svg>
