<svg width="52" height="49" viewBox="0 0 52 49" fill="none" xmlns="http://www.w3.org/2000/svg">
<path fill-rule="evenodd" clip-rule="evenodd" d="M31.9351 25.0406L26.0381 21.4886L20.1411 25.0406L21.6961 18.3346L16.4961 13.8236L23.3551 13.2296L26.0381 6.89062L28.7211 13.2296L35.5801 13.8236L30.3801 18.3346L31.9351 25.0406Z" stroke="#C0A78F" stroke-width="2" stroke-miterlimit="3.8637"/>
<path d="M40.6152 4.86133H50.0762C50.0762 4.86133 48.1142 13.0983 40.6702 15.6843" stroke="#C0A78F" stroke-width="2" stroke-miterlimit="3.8637"/>
<path d="M11.461 4.86133H2C2 4.86133 3.962 13.0983 11.406 15.6843" stroke="#C0A78F" stroke-width="2" stroke-miterlimit="3.8637"/>
<path d="M25.8765 1H40.6805V22.159C40.6415 23.85 40.4725 36.703 26.0195 36.703C11.5665 36.703 11.4335 23.85 11.3945 22.16V1H26.1985" stroke="#C0A78F" stroke-width="2" stroke-miterlimit="3.8637"/>
<path d="M26.0742 36.6914V47.5634" stroke="#C0A78F" stroke-width="2" stroke-miterlimit="3.8637"/>
<path d="M12.4473 47.6133H39.4573" stroke="#C0A78F" stroke-width="2" stroke-miterlimit="3.8637"/>
</svg>
