<svg width="44" height="49" viewBox="0 0 44 49" fill="none" xmlns="http://www.w3.org/2000/svg">
<path d="M18.8174 4.07109C18.8174 2.37484 20.1925 1 21.8885 1C23.5847 1 24.9598 2.37509 24.9598 4.07109C24.9598 4.94515 24.579 5.73378 24.0089 6.29318C23.4452 6.81927 22.0005 7.28999 22.0005 9.75984" stroke="#C0A78F" stroke-width="2" stroke-miterlimit="3.8637" stroke-linecap="round" stroke-linejoin="round"/>
<path d="M38.2281 15.175L22.0307 9.75977L5.78613 15.175" stroke="#C0A78F" stroke-width="2" stroke-miterlimit="3.8637" stroke-linecap="round" stroke-linejoin="round"/>
<path d="M3.82129 13.9688C3.82129 13.9688 9.19689 18.4422 22.0317 18.4422C34.8662 18.4422 40.2084 13.9688 40.2084 13.9688" stroke="#C0A78F" stroke-width="2" stroke-miterlimit="3.8637" stroke-linecap="round" stroke-linejoin="round"/>
<path d="M3.88371 13.918C2.22678 16.7781 1.26555 19.5992 1 22.3807L5.54865 24.7859L7.80781 22.9767C7.80781 22.9767 12.7663 26.4008 12.3279 35.4194C11.8895 44.438 12.746 46.2214 12.746 46.2214C14.0304 47.1281 21.9991 47.3886 21.9991 47.3886C21.9991 47.3886 29.9696 47.1281 31.254 46.2214C31.254 46.2214 32.1105 44.438 31.6721 35.4194C31.2337 26.4008 35.75 22.9767 35.75 22.9767L38.4514 24.7859L43 22.3807C42.7344 19.599 41.7732 16.7781 40.1165 13.918" stroke="#C0A78F" stroke-width="2" stroke-miterlimit="3.8637" stroke-linecap="round" stroke-linejoin="round"/>
<path d="M22.0014 26.87C22.4396 26.87 22.7948 26.5148 22.7948 26.0766C22.7948 25.6384 22.4396 25.2832 22.0014 25.2832C21.5632 25.2832 21.208 25.6384 21.208 26.0766C21.208 26.5148 21.5632 26.87 22.0014 26.87Z" stroke="#C0A78F" stroke-width="2" stroke-miterlimit="3.8637" stroke-linecap="round" stroke-linejoin="round"/>
<path d="M22.0014 32.452C22.4396 32.452 22.7948 32.0968 22.7948 31.6586C22.7948 31.2204 22.4396 30.8652 22.0014 30.8652C21.5632 30.8652 21.208 31.2204 21.208 31.6586C21.208 32.0968 21.5632 32.452 22.0014 32.452Z" stroke="#C0A78F" stroke-width="2" stroke-miterlimit="3.8637" stroke-linecap="round" stroke-linejoin="round"/>
</svg>
