<svg width="140" height="26" viewBox="0 0 140 26" fill="none" xmlns="http://www.w3.org/2000/svg">
<path d="M93.8413 17.1761V16.4135H98.5001L93.8413 3.38331V0.000333066H96.466L105.205 23.5614L108.22 25.1893V25.5283H98.1957V25.1893L101.07 23.5433L98.7863 17.1764L93.8413 17.1761ZM93.8413 0.000333066V3.38331L89.1828 16.4135H93.8413V17.1761H88.8966L86.6309 23.543H86.6494L90.4008 25.189V25.528H82.4961V25.189L85.6871 23.5611L93.2146 2.7295L91.5213 0.339009V0L93.8413 0.000333066Z" fill="black"/>
<path d="M122.571 25.2074L119.575 23.2947L119.575 3.72846L135.878 26L137.005 25.528V2.23325L140.001 0.32093V0.000333066H133.204V0.32093L136.2 2.23325V20.3534L121.323 0H115.848V0.339009L118.807 1.9853V23.2947L115.848 25.2074V25.528H122.571V25.2074Z" fill="black"/>
<path d="M57.8774 23.5611L54.9727 25.189V25.528H74.3814L75.3256 19.04L75.167 19.0219L71.1719 24.7654H61.6412V12.8184H67.0307L69.1684 16.1713H69.4731V8.79389H69.1684L67.0307 12.0558H61.6412V0.762617H69.9539L73.0231 6.48798H73.1875V0H54.9727V0.33902L57.8774 1.98531V23.5611Z" fill="black"/>
<path d="M38.1305 0H28.1797V0.33902L31.0844 1.98531V23.5611L28.1797 25.189V25.528H46.2668L47.2106 19.04L47.0524 19.0219L43.0573 24.7654H34.8482V1.98531L38.1305 0.33902V0Z" fill="black"/>
<path d="M0 25.189L2.90476 23.5611V1.98531L0 0.33902V0H18.2148V6.48798H18.0504L14.9813 0.762617H6.66853V12.0558H12.0583L14.1957 8.79389H14.5005V16.1713H14.1957L12.0583 12.8184H6.66853V24.7654H16.1993L20.1943 19.0219L20.3526 19.04L19.4088 25.528H0.000343002L0 25.189Z" fill="black"/>
</svg>
