<svg width="36" height="28" viewBox="0 0 36 28" fill="none" xmlns="http://www.w3.org/2000/svg">
<path d="M12.5769 11.246C11.8813 10.6203 9.21613 8.37173 6.85609 8.39471C4.43734 8.41857 0.70379 10.0016 1.0187 14.6922C1.29714 18.8357 12.3919 27.3561 12.3919 27.3561C12.4613 27.4073 12.5334 27.4073 12.6081 27.3561C12.6081 27.3561 23.7029 18.8348 23.9813 14.6922C24.2962 10.0016 20.5627 8.41857 18.143 8.39471C15.4022 8.36819 12.2496 11.4051 12.2496 11.4051L10.1093 13.5874" stroke="#333333" stroke-miterlimit="3.8637"/>
<path d="M31.995 5.7465C31.995 6.3135 31.9335 6.807 31.8105 7.227C31.6905 7.644 31.5225 7.989 31.3065 8.262C31.0935 8.535 30.84 8.739 30.546 8.874C30.255 9.006 29.94 9.072 29.601 9.072C29.262 9.072 28.947 9.006 28.656 8.874C28.368 8.739 28.1175 8.535 27.9045 8.262C27.6915 7.989 27.525 7.644 27.405 7.227C27.285 6.807 27.225 6.3135 27.225 5.7465C27.225 5.1765 27.285 4.683 27.405 4.266C27.525 3.849 27.6915 3.504 27.9045 3.231C28.1175 2.958 28.368 2.7555 28.656 2.6235C28.947 2.4885 29.262 2.421 29.601 2.421C29.94 2.421 30.255 2.4885 30.546 2.6235C30.84 2.7555 31.0935 2.958 31.3065 3.231C31.5225 3.504 31.6905 3.849 31.8105 4.266C31.9335 4.683 31.995 5.1765 31.995 5.7465ZM30.8475 5.7465C30.8475 5.2755 30.813 4.8855 30.744 4.5765C30.675 4.2675 30.582 4.0215 30.465 3.8385C30.351 3.6555 30.219 3.528 30.069 3.456C29.919 3.381 29.763 3.3435 29.601 3.3435C29.442 3.3435 29.2875 3.381 29.1375 3.456C28.9905 3.528 28.86 3.6555 28.746 3.8385C28.632 4.0215 28.5405 4.2675 28.4715 4.5765C28.4055 4.8855 28.3725 5.2755 28.3725 5.7465C28.3725 6.2175 28.4055 6.6075 28.4715 6.9165C28.5405 7.2255 28.632 7.4715 28.746 7.6545C28.86 7.8375 28.9905 7.9665 29.1375 8.0415C29.2875 8.1135 29.442 8.1495 29.601 8.1495C29.763 8.1495 29.919 8.1135 30.069 8.0415C30.219 7.9665 30.351 7.8375 30.465 7.6545C30.582 7.4715 30.675 7.2255 30.744 6.9165C30.813 6.6075 30.8475 6.2175 30.8475 5.7465Z" fill="#333333"/>
</svg>
