<svg width="32" height="29" viewBox="0 0 32 29" fill="none" xmlns="http://www.w3.org/2000/svg">
<path d="M3.67929 27.8598H0.499023V11.502H3.73406" stroke="#333333" stroke-miterlimit="3.8637"/>
<path d="M5.89062 12.1886C5.89062 12.1886 5.89062 12.3638 5.89062 10.7682C5.89062 9.17355 7.09758 7.88086 8.58649 7.88086C10.0754 7.88086 11.2824 9.17355 11.2824 10.7682C11.2824 12.3629 11.2824 12.1886 11.2824 12.1886" stroke="#333333" stroke-miterlimit="3.8637"/>
<path d="M3.75879 11.502H19.499V27.8598H3.75879V11.502Z" fill="#E1C4A9"/>
<path d="M3.75879 11.502H19.499V27.8598H3.75879V11.502Z" stroke="black" stroke-miterlimit="3.8637"/>
<path d="M9.12598 13.2726C9.12598 13.2726 9.12598 11.9056 9.12598 10.4736C9.12598 9.04167 10.3329 7.88086 11.8218 7.88086C13.3108 7.88086 14.5177 9.04167 14.5177 10.4736C14.5177 11.9056 14.5177 13.2726 14.5177 13.2726" stroke="#333333" stroke-miterlimit="3.8637"/>
<path d="M27.995 5.7465C27.995 6.3135 27.9335 6.807 27.8105 7.227C27.6905 7.644 27.5225 7.989 27.3065 8.262C27.0935 8.535 26.84 8.739 26.546 8.874C26.255 9.006 25.94 9.072 25.601 9.072C25.262 9.072 24.947 9.006 24.656 8.874C24.368 8.739 24.1175 8.535 23.9045 8.262C23.6915 7.989 23.525 7.644 23.405 7.227C23.285 6.807 23.225 6.3135 23.225 5.7465C23.225 5.1765 23.285 4.683 23.405 4.266C23.525 3.849 23.6915 3.504 23.9045 3.231C24.1175 2.958 24.368 2.7555 24.656 2.6235C24.947 2.4885 25.262 2.421 25.601 2.421C25.94 2.421 26.255 2.4885 26.546 2.6235C26.84 2.7555 27.0935 2.958 27.3065 3.231C27.5225 3.504 27.6905 3.849 27.8105 4.266C27.9335 4.683 27.995 5.1765 27.995 5.7465ZM26.8475 5.7465C26.8475 5.2755 26.813 4.8855 26.744 4.5765C26.675 4.2675 26.582 4.0215 26.465 3.8385C26.351 3.6555 26.219 3.528 26.069 3.456C25.919 3.381 25.763 3.3435 25.601 3.3435C25.442 3.3435 25.2875 3.381 25.1375 3.456C24.9905 3.528 24.86 3.6555 24.746 3.8385C24.632 4.0215 24.5405 4.2675 24.4715 4.5765C24.4055 4.8855 24.3725 5.2755 24.3725 5.7465C24.3725 6.2175 24.4055 6.6075 24.4715 6.9165C24.5405 7.2255 24.632 7.4715 24.746 7.6545C24.86 7.8375 24.9905 7.9665 25.1375 8.0415C25.2875 8.1135 25.442 8.1495 25.601 8.1495C25.763 8.1495 25.919 8.1135 26.069 8.0415C26.219 7.9665 26.351 7.8375 26.465 7.6545C26.582 7.4715 26.675 7.2255 26.744 6.9165C26.813 6.6075 26.8475 6.2175 26.8475 5.7465Z" fill="#333333"/>
</svg>
