<svg width="20" height="12" viewBox="0 0 20 12" fill="none" xmlns="http://www.w3.org/2000/svg">
<path fill-rule="evenodd" clip-rule="evenodd" d="M11.1226 11.6601C11.1226 11.6601 11.458 11.6217 11.6257 11.4502C11.7935 11.2778 11.7748 10.9509 11.7748 10.9509C11.7748 10.9509 11.7562 9.43951 12.4456 9.2287C13.1351 8.99825 14.0109 10.6838 14.9426 11.3153C15.6506 11.8137 16.191 11.6985 16.191 11.6985L18.6693 11.6601C18.6693 11.6601 19.9737 11.5842 19.3588 10.5498C19.3029 10.473 19.0047 9.7843 17.5131 8.38637C15.9479 6.93129 16.1529 7.16174 18.0349 4.65263C19.1715 3.10286 19.6374 2.16496 19.4883 1.7621C19.3579 1.3798 18.5194 1.47627 18.5194 1.47627L15.7057 1.49502C15.7057 1.49502 15.5016 1.47627 15.3525 1.57095C15.2034 1.64777 15.1103 1.85768 15.1103 1.85768C15.1103 1.85768 14.6631 3.06355 14.0668 4.07828C12.8183 6.20329 12.3338 6.31852 12.1289 6.18364C11.6444 5.87726 11.7562 4.93936 11.7562 4.28908C11.7562 2.20247 12.073 1.34049 11.1599 1.12969C10.8618 1.05287 10.6382 0.995703 9.85554 0.995703C8.84931 0.976945 8.01079 0.995703 7.52631 1.22616C7.20954 1.39855 6.9673 1.74245 7.11637 1.7621C7.30271 1.78086 7.71266 1.87733 7.93626 2.18371C8.21577 2.56691 8.21576 3.4673 8.21576 3.4673C8.21576 3.4673 8.38347 5.8987 7.82446 6.20419C7.45178 6.41499 6.93003 5.97373 5.81201 4.04076C5.25299 3.04569 4.82442 1.95415 4.82442 1.95415C4.82442 1.95415 4.73125 1.74335 4.58218 1.64777C4.41448 1.51378 4.15361 1.45572 4.15361 1.45572L1.48898 1.47537C1.48898 1.47537 1.09767 1.49413 0.948597 1.66563C0.81816 1.81927 0.948597 2.1453 0.948597 2.1453C0.948597 2.1453 3.01695 7.06527 5.38344 9.53419C7.54584 11.8128 10.0046 11.6592 10.0046 11.6592H11.1226V11.6601Z" fill="#2F2F2F"/>
</svg>
